<svg xmlns="http://www.w3.org/2000/svg" xmlns:xlink="http://www.w3.org/1999/xlink" width="788" zoomAndPan="magnify" viewBox="0 0 591 107.999999" height="144" preserveAspectRatio="xMidYMid meet" version="1.0"><defs><g/><clipPath id="a2f9c0e28d"><path d="M 3.339844 1 L 323.589844 1 L 323.589844 67.5 L 3.339844 67.5 Z M 3.339844 1 " clip-rule="nonzero"/></clipPath><clipPath id="04698fa621"><rect x="0" width="348" y="0" height="37"/></clipPath></defs><g clip-path="url(#a2f9c0e28d)"><path fill="#ffffff" d="M 322.238281 63.550781 C 294.226562 63.550781 272.425781 51.546875 256.507812 42.789062 C 246.425781 37.238281 238.460938 32.847656 231.644531 32.582031 C 215.855469 31.945312 199.761719 37.195312 185.453125 43.480469 C 180.132812 39.835938 174.71875 35.992188 169.335938 32.164062 C 151.160156 19.246094 132.367188 5.878906 118.726562 1.683594 C 118.683594 1.667969 118.632812 1.667969 118.582031 1.660156 C 118.558594 1.648438 118.535156 1.648438 118.507812 1.640625 C 112.449219 0.046875 101.789062 8.445312 85.738281 21.121094 C 63.066406 39.027344 32.011719 63.550781 4.9375 63.550781 C 4.050781 63.550781 3.339844 64.261719 3.339844 65.140625 C 3.339844 66.027344 4.050781 66.738281 4.9375 66.738281 C 33.117188 66.738281 64.671875 41.816406 87.71875 23.628906 C 100.761719 13.320312 113.074219 3.597656 117.628906 4.710938 C 127.429688 11.230469 129.601562 15.71875 129.683594 18.335938 C 129.75 20.375 128.632812 22.238281 126.265625 24.019531 C 118.976562 29.519531 114.980469 36.542969 115.015625 43.800781 C 115.046875 50.488281 118.640625 56.816406 125.128906 61.613281 C 129.945312 65.164062 134.347656 66.8125 139.179688 66.8125 C 139.800781 66.8125 140.417969 66.789062 141.054688 66.730469 C 146.921875 66.234375 155.398438 61.898438 166.132812 56.40625 C 171.859375 53.472656 178.277344 50.195312 185.117188 47.132812 C 201.777344 58.488281 216.859375 67.253906 227.617188 67.253906 C 229.179688 67.253906 230.652344 67.070312 232.015625 66.679688 C 238.132812 64.949219 245.078125 60.609375 246.226562 53.621094 C 246.851562 49.765625 245.742188 44.042969 238.140625 37.261719 C 242.929688 38.984375 248.492188 42.019531 254.96875 45.578125 C 271.1875 54.507812 293.40625 66.738281 322.238281 66.738281 C 323.117188 66.738281 323.835938 66.027344 323.835938 65.140625 C 323.835938 64.261719 323.125 63.550781 322.238281 63.550781 Z M 164.679688 53.5625 C 154.671875 58.6875 146.027344 63.109375 140.785156 63.550781 C 135.980469 63.953125 131.851562 62.617188 127.027344 59.046875 C 121.285156 54.808594 118.230469 49.523438 118.207031 43.78125 C 118.175781 37.5625 121.71875 31.445312 128.1875 26.5625 C 131.398438 24.144531 132.96875 21.335938 132.871094 18.234375 C 132.777344 15.328125 131.179688 12.300781 128.113281 9.097656 C 139.824219 15.09375 153.828125 25.046875 167.488281 34.761719 C 172.410156 38.265625 177.285156 41.726562 182.039062 45.011719 C 175.8125 47.878906 169.953125 50.871094 164.679688 53.5625 Z M 243.074219 53.101562 C 242.171875 58.621094 236.085938 62.207031 231.144531 63.609375 C 221.898438 66.21875 205.957031 57.324219 188.570312 45.613281 C 201.917969 39.910156 216.675781 35.339844 231.050781 35.765625 C 239.773438 41.808594 243.941406 47.804688 243.074219 53.101562 Z M 243.074219 53.101562 " fill-opacity="1" fill-rule="nonzero"/></g><g transform="matrix(1, 0, 0, 1, 2, 69)"><g clip-path="url(#04698fa621)"><g fill="#ffffff" fill-opacity="1"><g transform="translate(1.368549, 28.282173)"><g><path d="M 1.03125 -23.015625 L 1.03125 -25.78125 C 1.03125 -26.289062 1.285156 -26.546875 1.796875 -26.546875 L 20 -26.546875 C 20.226562 -26.546875 20.410156 -26.472656 20.546875 -26.328125 C 20.679688 -26.191406 20.75 -26.007812 20.75 -25.78125 L 20.75 -23.015625 C 20.75 -22.492188 20.5 -22.234375 20 -22.234375 L 13.34375 -22.234375 L 13.34375 -0.75 C 13.34375 -0.238281 13.078125 0.015625 12.546875 0.015625 L 9.171875 0.015625 C 8.660156 0.015625 8.40625 -0.238281 8.40625 -0.75 L 8.40625 -22.234375 L 1.796875 -22.234375 C 1.566406 -22.234375 1.378906 -22.300781 1.234375 -22.4375 C 1.097656 -22.570312 1.03125 -22.765625 1.03125 -23.015625 Z M 1.03125 -23.015625 "/></g></g></g><g fill="#ffffff" fill-opacity="1"><g transform="translate(32.985515, 28.282173)"><g><path d="M 1.578125 -13.234375 C 1.578125 -14.765625 1.800781 -16.222656 2.25 -17.609375 C 2.707031 -18.992188 3.351562 -20.253906 4.1875 -21.390625 C 5.03125 -22.523438 6.019531 -23.507812 7.15625 -24.34375 C 8.300781 -25.175781 9.566406 -25.816406 10.953125 -26.265625 C 12.347656 -26.722656 13.8125 -26.953125 15.34375 -26.953125 C 16.882812 -26.953125 18.347656 -26.722656 19.734375 -26.265625 C 21.117188 -25.816406 22.378906 -25.175781 23.515625 -24.34375 C 24.660156 -23.507812 25.648438 -22.523438 26.484375 -21.390625 C 27.328125 -20.253906 27.976562 -18.992188 28.4375 -17.609375 C 28.894531 -16.222656 29.125 -14.765625 29.125 -13.234375 C 29.125 -11.691406 28.894531 -10.234375 28.4375 -8.859375 C 27.976562 -7.484375 27.328125 -6.226562 26.484375 -5.09375 C 25.648438 -3.96875 24.660156 -2.988281 23.515625 -2.15625 C 22.378906 -1.332031 21.117188 -0.695312 19.734375 -0.25 C 18.347656 0.195312 16.882812 0.421875 15.34375 0.421875 C 13.8125 0.421875 12.347656 0.195312 10.953125 -0.25 C 9.566406 -0.695312 8.300781 -1.332031 7.15625 -2.15625 C 6.019531 -2.988281 5.03125 -3.96875 4.1875 -5.09375 C 3.351562 -6.226562 2.707031 -7.484375 2.25 -8.859375 C 1.800781 -10.234375 1.578125 -11.691406 1.578125 -13.234375 Z M 6.5 -13.234375 C 6.5 -11.992188 6.722656 -10.847656 7.171875 -9.796875 C 7.617188 -8.742188 8.25 -7.820312 9.0625 -7.03125 C 9.875 -6.238281 10.816406 -5.617188 11.890625 -5.171875 C 12.960938 -4.734375 14.113281 -4.515625 15.34375 -4.515625 C 16.59375 -4.515625 17.75 -4.734375 18.8125 -5.171875 C 19.882812 -5.617188 20.820312 -6.238281 21.625 -7.03125 C 22.4375 -7.820312 23.066406 -8.742188 23.515625 -9.796875 C 23.960938 -10.847656 24.1875 -11.992188 24.1875 -13.234375 C 24.1875 -14.484375 23.957031 -15.640625 23.5 -16.703125 C 23.050781 -17.765625 22.425781 -18.691406 21.625 -19.484375 C 20.820312 -20.285156 19.882812 -20.910156 18.8125 -21.359375 C 17.738281 -21.816406 16.582031 -22.046875 15.34375 -22.046875 C 14.113281 -22.046875 12.960938 -21.816406 11.890625 -21.359375 C 10.816406 -20.910156 9.875 -20.285156 9.0625 -19.484375 C 8.257812 -18.691406 7.628906 -17.765625 7.171875 -16.703125 C 6.722656 -15.640625 6.5 -14.484375 6.5 -13.234375 Z M 6.5 -13.234375 "/></g></g></g><g fill="#ffffff" fill-opacity="1"><g transform="translate(73.514686, 28.282173)"><g><path d="M 7.625 -25.96875 L 7.625 -10.875 C 7.625 -9.9375 7.773438 -9.070312 8.078125 -8.28125 C 8.390625 -7.5 8.820312 -6.816406 9.375 -6.234375 C 9.9375 -5.648438 10.597656 -5.195312 11.359375 -4.875 C 12.128906 -4.5625 12.96875 -4.40625 13.875 -4.40625 C 14.78125 -4.40625 15.613281 -4.5625 16.375 -4.875 C 17.132812 -5.195312 17.796875 -5.648438 18.359375 -6.234375 C 18.921875 -6.816406 19.359375 -7.5 19.671875 -8.28125 C 19.984375 -9.070312 20.140625 -9.9375 20.140625 -10.875 L 20.140625 -25.96875 C 20.140625 -26.375 20.347656 -26.578125 20.765625 -26.578125 L 24.421875 -26.578125 C 24.847656 -26.578125 25.0625 -26.375 25.0625 -25.96875 L 25.0625 -10.859375 C 25.0625 -9.191406 24.789062 -7.671875 24.25 -6.296875 C 23.707031 -4.921875 22.9375 -3.726562 21.9375 -2.71875 C 20.945312 -1.71875 19.765625 -0.941406 18.390625 -0.390625 C 17.023438 0.148438 15.519531 0.421875 13.875 0.421875 C 12.21875 0.421875 10.703125 0.144531 9.328125 -0.40625 C 7.960938 -0.957031 6.78125 -1.738281 5.78125 -2.75 C 4.789062 -3.757812 4.023438 -4.957031 3.484375 -6.34375 C 2.953125 -7.726562 2.6875 -9.253906 2.6875 -10.921875 L 2.6875 -25.96875 C 2.6875 -26.375 2.878906 -26.578125 3.265625 -26.578125 L 7.046875 -26.578125 C 7.429688 -26.578125 7.625 -26.375 7.625 -25.96875 Z M 7.625 -25.96875 "/></g></g></g><g fill="#ffffff" fill-opacity="1"><g transform="translate(111.125554, 28.282173)"><g><path d="M 19.84375 -7.84375 L 23.40625 -0.890625 C 23.53125 -0.628906 23.546875 -0.410156 23.453125 -0.234375 C 23.359375 -0.0664062 23.171875 0.015625 22.890625 0.015625 L 19.046875 0.015625 C 18.890625 0.015625 18.722656 -0.0390625 18.546875 -0.15625 C 18.378906 -0.28125 18.25 -0.4375 18.15625 -0.625 L 15.421875 -6.25 C 15.128906 -6.207031 14.832031 -6.175781 14.53125 -6.15625 C 14.226562 -6.144531 13.914062 -6.140625 13.59375 -6.140625 L 8.109375 -6.140625 L 8.109375 -0.75 C 8.109375 -0.519531 8.03125 -0.332031 7.875 -0.1875 C 7.726562 -0.0507812 7.539062 0.015625 7.3125 0.015625 L 3.953125 0.015625 C 3.734375 0.015625 3.546875 -0.0507812 3.390625 -0.1875 C 3.234375 -0.332031 3.15625 -0.519531 3.15625 -0.75 L 3.15625 -25.796875 C 3.15625 -26.015625 3.234375 -26.191406 3.390625 -26.328125 C 3.546875 -26.472656 3.734375 -26.546875 3.953125 -26.546875 L 4.828125 -26.546875 C 5.335938 -26.546875 5.835938 -26.546875 6.328125 -26.546875 C 6.828125 -26.546875 7.179688 -26.546875 7.390625 -26.546875 L 13.59375 -26.546875 C 15.15625 -26.546875 16.585938 -26.289062 17.890625 -25.78125 C 19.203125 -25.28125 20.335938 -24.566406 21.296875 -23.640625 C 22.253906 -22.722656 23 -21.632812 23.53125 -20.375 C 24.0625 -19.125 24.328125 -17.75 24.328125 -16.25 C 24.328125 -14.445312 23.925781 -12.816406 23.125 -11.359375 C 22.320312 -9.910156 21.226562 -8.738281 19.84375 -7.84375 Z M 13.28125 -10.265625 C 14.46875 -10.265625 15.519531 -10.519531 16.4375 -11.03125 C 17.363281 -11.539062 18.085938 -12.25 18.609375 -13.15625 C 19.140625 -14.070312 19.40625 -15.117188 19.40625 -16.296875 C 19.40625 -17.148438 19.25 -17.9375 18.9375 -18.65625 C 18.625 -19.382812 18.191406 -20.015625 17.640625 -20.546875 C 17.097656 -21.085938 16.453125 -21.503906 15.703125 -21.796875 C 14.960938 -22.085938 14.15625 -22.234375 13.28125 -22.234375 L 8.109375 -22.234375 L 8.109375 -10.265625 Z M 13.28125 -10.265625 "/></g></g></g><g fill="#ffffff" fill-opacity="1"><g transform="translate(147.478229, 28.282173)"><g><path d="M 11.984375 0.421875 C 10.984375 0.421875 9.988281 0.3125 9 0.09375 C 8.007812 -0.125 7.066406 -0.429688 6.171875 -0.828125 C 5.285156 -1.222656 4.476562 -1.691406 3.75 -2.234375 C 3.019531 -2.773438 2.414062 -3.367188 1.9375 -4.015625 C 1.8125 -4.179688 1.757812 -4.363281 1.78125 -4.5625 C 1.800781 -4.769531 1.90625 -4.96875 2.09375 -5.15625 L 4.375 -7.421875 C 4.53125 -7.578125 4.707031 -7.640625 4.90625 -7.609375 C 5.113281 -7.578125 5.328125 -7.460938 5.546875 -7.265625 C 6.066406 -6.710938 6.671875 -6.210938 7.359375 -5.765625 C 8.046875 -5.316406 8.773438 -4.957031 9.546875 -4.6875 C 10.316406 -4.425781 11.066406 -4.296875 11.796875 -4.296875 C 13.285156 -4.296875 14.425781 -4.585938 15.21875 -5.171875 C 16.007812 -5.753906 16.40625 -6.554688 16.40625 -7.578125 C 16.40625 -8.210938 16.1875 -8.753906 15.75 -9.203125 C 15.320312 -9.648438 14.691406 -10.0625 13.859375 -10.4375 C 13.035156 -10.8125 12.019531 -11.203125 10.8125 -11.609375 C 9.5625 -12.015625 8.445312 -12.453125 7.46875 -12.921875 C 6.488281 -13.398438 5.65625 -13.941406 4.96875 -14.546875 C 4.28125 -15.148438 3.753906 -15.851562 3.390625 -16.65625 C 3.035156 -17.457031 2.859375 -18.394531 2.859375 -19.46875 C 2.859375 -20.96875 3.226562 -22.273438 3.96875 -23.390625 C 4.71875 -24.515625 5.769531 -25.390625 7.125 -26.015625 C 8.476562 -26.640625 10.082031 -26.953125 11.9375 -26.953125 C 12.9375 -26.953125 13.914062 -26.828125 14.875 -26.578125 C 15.84375 -26.328125 16.722656 -25.976562 17.515625 -25.53125 C 18.316406 -25.082031 18.972656 -24.554688 19.484375 -23.953125 C 19.671875 -23.753906 19.765625 -23.535156 19.765625 -23.296875 C 19.773438 -23.066406 19.703125 -22.851562 19.546875 -22.65625 L 17.703125 -20.5625 C 17.460938 -20.269531 17.21875 -20.132812 16.96875 -20.15625 C 16.726562 -20.1875 16.46875 -20.296875 16.1875 -20.484375 C 15.59375 -21.046875 14.890625 -21.476562 14.078125 -21.78125 C 13.265625 -22.09375 12.472656 -22.25 11.703125 -22.25 C 10.441406 -22.25 9.457031 -21.984375 8.75 -21.453125 C 8.050781 -20.921875 7.703125 -20.242188 7.703125 -19.421875 C 7.703125 -18.753906 7.953125 -18.179688 8.453125 -17.703125 C 8.960938 -17.234375 9.640625 -16.8125 10.484375 -16.4375 C 11.335938 -16.070312 12.28125 -15.710938 13.3125 -15.359375 C 14.382812 -15.015625 15.410156 -14.632812 16.390625 -14.21875 C 17.367188 -13.8125 18.242188 -13.320312 19.015625 -12.75 C 19.785156 -12.1875 20.394531 -11.488281 20.84375 -10.65625 C 21.289062 -9.832031 21.515625 -8.832031 21.515625 -7.65625 C 21.515625 -6.414062 21.28125 -5.296875 20.8125 -4.296875 C 20.351562 -3.304688 19.695312 -2.457031 18.84375 -1.75 C 18 -1.050781 16.992188 -0.515625 15.828125 -0.140625 C 14.671875 0.234375 13.390625 0.421875 11.984375 0.421875 Z M 11.984375 0.421875 "/></g></g></g><g fill="#ffffff" fill-opacity="1"><g transform="translate(180.510669, 28.282173)"><g><path d="M 8.09375 -25.984375 L 8.09375 -0.5625 C 8.09375 -0.175781 7.894531 0.015625 7.5 0.015625 L 3.734375 0.015625 C 3.347656 0.015625 3.15625 -0.175781 3.15625 -0.5625 L 3.15625 -25.984375 C 3.15625 -26.378906 3.347656 -26.578125 3.734375 -26.578125 L 7.5 -26.578125 C 7.894531 -26.578125 8.09375 -26.378906 8.09375 -25.984375 Z M 8.09375 -25.984375 "/></g></g></g><g fill="#ffffff" fill-opacity="1"><g transform="translate(201.607738, 28.282173)"><g><path d="M 22.390625 -4.6875 C 22.710938 -4.6875 22.96875 -4.597656 23.15625 -4.421875 C 23.351562 -4.242188 23.453125 -4.003906 23.453125 -3.703125 L 23.453125 -0.765625 C 23.453125 -0.535156 23.378906 -0.347656 23.234375 -0.203125 C 23.085938 -0.0664062 22.894531 0 22.65625 0 L 3.953125 0 C 3.421875 0 3.15625 -0.253906 3.15625 -0.765625 L 3.15625 -25.765625 C 3.15625 -26.285156 3.421875 -26.546875 3.953125 -26.546875 L 22.28125 -26.546875 C 22.539062 -26.546875 22.738281 -26.472656 22.875 -26.328125 C 23.019531 -26.191406 23.09375 -26.007812 23.09375 -25.78125 L 23.09375 -22.671875 C 23.09375 -22.128906 22.820312 -21.859375 22.28125 -21.859375 L 8.109375 -21.859375 L 8.109375 -14.546875 L 19.203125 -14.546875 C 19.492188 -14.546875 19.722656 -14.472656 19.890625 -14.328125 C 20.054688 -14.191406 20.140625 -13.988281 20.140625 -13.71875 L 20.140625 -10.796875 C 20.140625 -10.566406 20.054688 -10.378906 19.890625 -10.234375 C 19.722656 -10.085938 19.492188 -10.015625 19.203125 -10.015625 L 8.109375 -10.015625 L 8.109375 -4.6875 Z M 22.390625 -4.6875 "/></g></g></g><g fill="#ffffff" fill-opacity="1"><g transform="translate(236.684737, 28.282173)"><g><path d="M 19.84375 -7.84375 L 23.40625 -0.890625 C 23.53125 -0.628906 23.546875 -0.410156 23.453125 -0.234375 C 23.359375 -0.0664062 23.171875 0.015625 22.890625 0.015625 L 19.046875 0.015625 C 18.890625 0.015625 18.722656 -0.0390625 18.546875 -0.15625 C 18.378906 -0.28125 18.25 -0.4375 18.15625 -0.625 L 15.421875 -6.25 C 15.128906 -6.207031 14.832031 -6.175781 14.53125 -6.15625 C 14.226562 -6.144531 13.914062 -6.140625 13.59375 -6.140625 L 8.109375 -6.140625 L 8.109375 -0.75 C 8.109375 -0.519531 8.03125 -0.332031 7.875 -0.1875 C 7.726562 -0.0507812 7.539062 0.015625 7.3125 0.015625 L 3.953125 0.015625 C 3.734375 0.015625 3.546875 -0.0507812 3.390625 -0.1875 C 3.234375 -0.332031 3.15625 -0.519531 3.15625 -0.75 L 3.15625 -25.796875 C 3.15625 -26.015625 3.234375 -26.191406 3.390625 -26.328125 C 3.546875 -26.472656 3.734375 -26.546875 3.953125 -26.546875 L 4.828125 -26.546875 C 5.335938 -26.546875 5.835938 -26.546875 6.328125 -26.546875 C 6.828125 -26.546875 7.179688 -26.546875 7.390625 -26.546875 L 13.59375 -26.546875 C 15.15625 -26.546875 16.585938 -26.289062 17.890625 -25.78125 C 19.203125 -25.28125 20.335938 -24.566406 21.296875 -23.640625 C 22.253906 -22.722656 23 -21.632812 23.53125 -20.375 C 24.0625 -19.125 24.328125 -17.75 24.328125 -16.25 C 24.328125 -14.445312 23.925781 -12.816406 23.125 -11.359375 C 22.320312 -9.910156 21.226562 -8.738281 19.84375 -7.84375 Z M 13.28125 -10.265625 C 14.46875 -10.265625 15.519531 -10.519531 16.4375 -11.03125 C 17.363281 -11.539062 18.085938 -12.25 18.609375 -13.15625 C 19.140625 -14.070312 19.40625 -15.117188 19.40625 -16.296875 C 19.40625 -17.148438 19.25 -17.9375 18.9375 -18.65625 C 18.625 -19.382812 18.191406 -20.015625 17.640625 -20.546875 C 17.097656 -21.085938 16.453125 -21.503906 15.703125 -21.796875 C 14.960938 -22.085938 14.15625 -22.234375 13.28125 -22.234375 L 8.109375 -22.234375 L 8.109375 -10.265625 Z M 13.28125 -10.265625 "/></g></g></g><g fill="#ffffff" fill-opacity="1"><g transform="translate(273.037412, 28.282173)"><g><path d="M 19.84375 -7.84375 L 23.40625 -0.890625 C 23.53125 -0.628906 23.546875 -0.410156 23.453125 -0.234375 C 23.359375 -0.0664062 23.171875 0.015625 22.890625 0.015625 L 19.046875 0.015625 C 18.890625 0.015625 18.722656 -0.0390625 18.546875 -0.15625 C 18.378906 -0.28125 18.25 -0.4375 18.15625 -0.625 L 15.421875 -6.25 C 15.128906 -6.207031 14.832031 -6.175781 14.53125 -6.15625 C 14.226562 -6.144531 13.914062 -6.140625 13.59375 -6.140625 L 8.109375 -6.140625 L 8.109375 -0.75 C 8.109375 -0.519531 8.03125 -0.332031 7.875 -0.1875 C 7.726562 -0.0507812 7.539062 0.015625 7.3125 0.015625 L 3.953125 0.015625 C 3.734375 0.015625 3.546875 -0.0507812 3.390625 -0.1875 C 3.234375 -0.332031 3.15625 -0.519531 3.15625 -0.75 L 3.15625 -25.796875 C 3.15625 -26.015625 3.234375 -26.191406 3.390625 -26.328125 C 3.546875 -26.472656 3.734375 -26.546875 3.953125 -26.546875 L 4.828125 -26.546875 C 5.335938 -26.546875 5.835938 -26.546875 6.328125 -26.546875 C 6.828125 -26.546875 7.179688 -26.546875 7.390625 -26.546875 L 13.59375 -26.546875 C 15.15625 -26.546875 16.585938 -26.289062 17.890625 -25.78125 C 19.203125 -25.28125 20.335938 -24.566406 21.296875 -23.640625 C 22.253906 -22.722656 23 -21.632812 23.53125 -20.375 C 24.0625 -19.125 24.328125 -17.75 24.328125 -16.25 C 24.328125 -14.445312 23.925781 -12.816406 23.125 -11.359375 C 22.320312 -9.910156 21.226562 -8.738281 19.84375 -7.84375 Z M 13.28125 -10.265625 C 14.46875 -10.265625 15.519531 -10.519531 16.4375 -11.03125 C 17.363281 -11.539062 18.085938 -12.25 18.609375 -13.15625 C 19.140625 -14.070312 19.40625 -15.117188 19.40625 -16.296875 C 19.40625 -17.148438 19.25 -17.9375 18.9375 -18.65625 C 18.625 -19.382812 18.191406 -20.015625 17.640625 -20.546875 C 17.097656 -21.085938 16.453125 -21.503906 15.703125 -21.796875 C 14.960938 -22.085938 14.15625 -22.234375 13.28125 -22.234375 L 8.109375 -22.234375 L 8.109375 -10.265625 Z M 13.28125 -10.265625 "/></g></g></g><g fill="#ffffff" fill-opacity="1"><g transform="translate(309.390087, 28.282173)"><g><path d="M 25.71875 -0.859375 C 25.832031 -0.597656 25.835938 -0.382812 25.734375 -0.21875 C 25.628906 -0.0507812 25.429688 0.03125 25.140625 0.03125 L 21.375 0.03125 C 21.175781 0.03125 21 -0.03125 20.84375 -0.15625 C 20.6875 -0.289062 20.566406 -0.453125 20.484375 -0.640625 L 19.421875 -3.234375 L 7.21875 -3.234375 L 6.15625 -0.671875 C 6.070312 -0.484375 5.953125 -0.320312 5.796875 -0.1875 C 5.648438 -0.0507812 5.46875 0.015625 5.25 0.015625 L 1.5 0.015625 C 1.207031 0.015625 1.003906 -0.0625 0.890625 -0.21875 C 0.785156 -0.382812 0.789062 -0.601562 0.90625 -0.875 L 12.21875 -26.21875 C 12.3125 -26.425781 12.445312 -26.59375 12.625 -26.71875 C 12.8125 -26.84375 12.992188 -26.90625 13.171875 -26.90625 L 13.40625 -26.90625 C 13.613281 -26.90625 13.800781 -26.835938 13.96875 -26.703125 C 14.144531 -26.578125 14.28125 -26.410156 14.375 -26.203125 Z M 8.953125 -7.46875 L 17.671875 -7.46875 L 13.3125 -18.03125 Z M 8.953125 -7.46875 "/></g></g></g></g></g></svg>